<svg width="32" height="32" viewBox="0 0 32 32" fill="none" xmlns="http://www.w3.org/2000/svg">
<path d="M4 10.6667V21.3333H10.7812L18.6667 29.2188V2.78125L10.7812 10.6667H4ZM17.3333 6.00005V26L11.724 20.3905L11.3333 20H5.33333V12H11.3333L17.3333 6.00005ZM22.0975 13.6428C22.7217 14.2684 23.0724 15.1161 23.0724 15.9999C23.0724 16.8837 22.7217 17.7315 22.0975 18.3569L23.0403 19.2997C23.9141 18.4239 24.4049 17.2371 24.4049 15.9997C24.4049 14.7625 23.9141 13.5757 23.0403 12.6998L22.0975 13.6428ZM26.8115 8.92885L25.8688 9.87165C27.4916 11.4983 28.4031 13.7021 28.4031 15.9999C28.4031 18.2976 27.4916 20.5016 25.8688 22.1281L26.8115 23.0709C28.6841 21.1943 29.7359 18.6512 29.7359 16C29.7359 13.3488 28.6841 10.8058 26.8115 8.92898V8.92885Z" fill="#323232"/>
</svg>
