<svg width="32" height="32" viewBox="0 0 32 32" fill="none" xmlns="http://www.w3.org/2000/svg">
<path d="M26 16C26 17.9779 25.4134 19.9112 24.3146 21.5557C23.2158 23.2003 21.6541 24.482 19.8268 25.2388C17.9996 25.9957 15.9889 26.1937 14.049 25.8079C12.1093 25.422 10.3274 24.4696 8.9289 23.0711C7.53038 21.6725 6.57796 19.8908 6.19211 17.9509C5.80626 16.0111 6.0043 14.0004 6.76118 12.1732C7.51804 10.3459 8.79978 8.78415 10.4443 7.68533C12.0888 6.58652 14.0221 6.00003 16 6.00003H20.1142L16.9009 9.21416L17.8436 10.157L22.6666 5.33336L17.843 0.509766L16.9004 1.45256L20.1142 4.66669H16C13.7585 4.66669 11.5673 5.33139 9.70351 6.57671C7.83975 7.82203 6.38712 9.59205 5.52934 11.6629C4.67154 13.7339 4.4471 16.0127 4.8844 18.2111C5.3217 20.4095 6.4011 22.4289 7.9861 24.0139C9.57108 25.5989 11.5905 26.6783 13.7889 27.1156C15.9874 27.5529 18.2661 27.3284 20.337 26.4707C22.408 25.6129 24.178 24.1603 25.4233 22.2965C26.6686 20.4328 27.3333 18.2416 27.3333 16H26Z" fill="#323232"/>
</svg>
