<svg width="32" height="32" viewBox="0 0 32 32" fill="none" xmlns="http://www.w3.org/2000/svg">
<path d="M24.0133 7.98576C22.9633 6.93025 21.7145 6.09344 20.339 5.52373C18.9636 4.95401 17.4888 4.66272 16 4.66669H11.8857L15.099 1.45256L14.1564 0.509766L9.33329 5.33336L14.1569 10.157L15.0996 9.21416L11.8857 6.00003H16C17.9778 6.00003 19.9112 6.58652 21.5557 7.68533C23.2001 8.78415 24.4818 10.3459 25.2388 12.1732C25.9957 14.0004 26.1937 16.0111 25.8078 17.9509C25.422 19.8908 24.4696 21.6725 23.071 23.0711C21.6725 24.4696 19.8906 25.422 17.9509 25.8079C16.011 26.1937 14.0004 25.9957 12.1731 25.2388C10.3459 24.482 8.78408 23.2003 7.68527 21.5557C6.58645 19.9112 5.99996 17.9779 5.99996 16H4.66663C4.6666 17.8639 5.12624 19.6989 6.00484 21.3427C6.88343 22.9864 8.15385 24.3881 9.70356 25.4236C11.2533 26.4591 13.0344 27.0963 14.8893 27.2789C16.7441 27.4616 18.6154 27.184 20.3373 26.4707C22.0593 25.7575 23.5786 24.6304 24.761 23.1896C25.9433 21.7488 26.7521 20.0387 27.1157 18.2107C27.4792 16.3827 27.3862 14.4932 26.8452 12.7097C26.304 10.9261 25.3313 9.30359 24.0133 7.98576Z" fill="#323232"/>
</svg>
