<svg width="28" height="28" viewBox="0 0 28 28" fill="none" xmlns="http://www.w3.org/2000/svg">
<path d="M18.2974 0H9.70257C1.85932 0 0 1.85932 0 9.70257V18.2974C0 26.1407 1.85932 28 9.70257 28H18.2974C26.1407 28 28 26.1407 28 18.2974V9.70257C28 1.85932 26.1223 0 18.2974 0ZM22.604 19.9739H20.5715C19.8015 19.9739 19.5644 19.3631 18.1793 17.9597C16.9762 16.7934 16.4434 16.6385 16.1467 16.6385C15.7276 16.6385 15.6086 16.7566 15.6086 17.3315V19.168C15.6086 19.6606 15.4538 19.9564 14.1501 19.9564C11.9941 19.9564 9.60195 18.6527 7.92463 16.2237C5.39508 12.6644 4.70298 9.99831 4.70298 9.44708C4.70298 9.15046 4.8211 8.8731 5.39071 8.8731H7.42764C7.943 8.8731 8.139 9.11022 8.33937 9.66145C9.34646 12.569 11.0238 15.116 11.7159 15.116C11.9714 15.116 12.0895 14.9979 12.0895 14.3461V11.3431C12.0116 9.95806 11.2828 9.83907 11.2828 9.34733C11.2828 9.11022 11.4788 8.8731 11.7929 8.8731H14.9962C15.4293 8.8731 15.5885 9.11022 15.5885 9.62033V13.6714C15.5885 14.1089 15.7845 14.2638 15.9026 14.2638C16.1581 14.2638 16.3769 14.1089 16.8502 13.6347C18.3132 11.9941 19.3614 9.46458 19.3614 9.46458C19.4979 9.16796 19.735 8.8906 20.2504 8.8906H22.2873C22.898 8.8906 23.0345 9.20471 22.898 9.6422C22.6425 10.8269 20.1497 14.3452 20.1497 14.3452C19.9354 14.7004 19.8531 14.8553 20.1497 15.2516C20.3685 15.5483 21.0798 16.1634 21.5532 16.7146C22.4238 17.7033 23.0932 18.5328 23.2716 19.1068C23.472 19.6764 23.1763 19.973 22.6014 19.973L22.604 19.9739Z" fill="#323232"/>
</svg>
